<svg width="40" height="40" viewBox="0 0 40 40" fill="none" xmlns="http://www.w3.org/2000/svg">
<path fill-rule="evenodd" clip-rule="evenodd" d="M19.6273 1.02864L37.305 18.7063C37.5593 18.9606 37.5593 19.3728 37.305 19.627L19.6273 37.3047C19.3731 37.5589 18.9609 37.5589 18.7066 37.3047L1.02897 19.627C0.774719 19.3728 0.77472 18.9606 1.02897 18.7063L18.7066 1.02864C18.9609 0.774393 19.3731 0.774393 19.6273 1.02864ZM19.167 35.9218L35.9239 19.1648L19.167 2.40787L2.41004 19.1648L19.167 35.9218Z" fill="white"/>
<path d="M13.9335 21.0037L9.27856 25.6589C9.02433 25.9132 9.02433 26.3254 9.27858 26.5796L18.7067 36.0077C18.9609 36.262 19.3731 36.262 19.6274 36.0077L29.0555 26.5796C29.3098 26.3254 29.3097 25.9131 29.0554 25.6588L24.3997 21.0049L24.3096 20.9296C24.0558 20.7539 23.7051 20.7791 23.4791 21.005L19.1657 25.3164L14.8543 21.0038C14.6 20.7495 14.1878 20.7495 13.9335 21.0037Z" fill="white"/>
<path fill-rule="evenodd" clip-rule="evenodd" d="M19.6273 11.6352L26.6984 18.7063C26.9527 18.9606 26.9527 19.3728 26.6984 19.627L19.6273 26.6981C19.3731 26.9523 18.9609 26.9523 18.7066 26.6981L11.6356 19.627C11.3813 19.3728 11.3813 18.9606 11.6356 18.7063L18.7066 11.6352C18.9609 11.381 19.3731 11.381 19.6273 11.6352ZM19.167 25.3152L25.3173 19.1648L19.167 13.0145L13.0166 19.1648L19.167 25.3152Z" fill="white"/>
</svg>
